<?xml version="1.0" encoding="UTF-8"?>
<svg id="uuid-51be82d6-9efd-4b5a-a065-bf99a99997c1" data-name="Capa 2" xmlns="http://www.w3.org/2000/svg" xmlns:xlink="http://www.w3.org/1999/xlink" viewBox="0 0 309.18 60.78">
  <defs>
    <style>
      .uuid-2aca966f-7c34-44c9-a342-1c21ee20eca5 {
        fill: none;
      }

      .uuid-2aca966f-7c34-44c9-a342-1c21ee20eca5, .uuid-74d1c126-e73f-4d1d-a58f-4e55a2f0020e {
        stroke-width: 0px;
      }

      .uuid-8f43ffcb-63fd-4b24-9b79-40839084d221 {
        clip-path: url(#uuid-c460265a-2f7b-4f74-96da-cec94e9b0423);
      }

      .uuid-74d1c126-e73f-4d1d-a58f-4e55a2f0020e {
        fill: url(#uuid-4d0ca10d-37e9-401a-9209-019a907dbdea);
      }
    </style>
    <clipPath id="uuid-c460265a-2f7b-4f74-96da-cec94e9b0423">
      <path class="uuid-2aca966f-7c34-44c9-a342-1c21ee20eca5" d="m0,31.96V5.15c0-.82.66-1.49,1.49-1.49h6.78c2.8,0,5.29.31,7.48.94,2.19.63,4.03,1.56,5.54,2.81,1.5,1.25,2.65,2.81,3.44,4.67.79,1.86,1.18,4.01,1.18,6.45s-.39,4.59-1.18,6.45c-.79,1.86-1.94,3.42-3.44,4.67-1.5,1.25-3.35,2.2-5.54,2.84-2.19.64-4.68.96-7.48.96H1.49c-.82,0-1.49-.66-1.49-1.49Zm4.47-2.09h3.8c4.35,0,7.63-.99,9.85-2.97,2.22-1.98,3.33-4.77,3.33-8.37s-1.11-6.39-3.33-8.35c-2.22-1.96-5.5-2.95-9.85-2.95h-3.8v22.64Zm1.16-1.07V8.31h2.63c3.78,0,6.72.86,8.82,2.57,2.1,1.71,3.15,4.26,3.15,7.66s-1.05,5.95-3.15,7.68c-2.1,1.73-5.04,2.59-8.82,2.59h-2.63Zm3.89-3.84c2.23,0,3.96-.53,5.18-1.59,1.22-1.06,1.83-2.67,1.83-4.85s-.61-3.78-1.83-4.82c-1.22-1.04-2.95-1.56-5.18-1.56v12.82Zm18.17-6.39c0-2.14.41-4.17,1.23-6.07.82-1.9,1.93-3.56,3.35-4.98,1.41-1.41,3.07-2.53,4.98-3.35,1.9-.82,3.93-1.23,6.07-1.23s4.17.41,6.07,1.23c1.9.82,3.56,1.94,4.98,3.35,1.41,1.41,2.53,3.07,3.35,4.98.82,1.91,1.23,3.93,1.23,6.07s-.41,4.17-1.23,6.07c-.82,1.91-1.94,3.57-3.35,4.98-1.41,1.41-3.07,2.53-4.98,3.35-1.91.82-3.93,1.23-6.07,1.23s-4.17-.41-6.07-1.23c-1.91-.82-3.57-1.93-4.98-3.35-1.41-1.41-2.53-3.07-3.35-4.98-.82-1.9-1.23-3.93-1.23-6.07Zm4.2,0c0,1.58.3,3.06.89,4.44.6,1.38,1.41,2.6,2.46,3.64,1.04,1.04,2.26,1.86,3.64,2.46,1.38.6,2.86.89,4.44.89s3.06-.3,4.44-.89c1.38-.6,2.6-1.41,3.64-2.46s1.86-2.26,2.46-3.64c.6-1.38.89-2.86.89-4.44s-.3-3.06-.89-4.44c-.6-1.38-1.41-2.6-2.46-3.64-1.04-1.04-2.26-1.86-3.64-2.46-1.38-.6-2.87-.89-4.44-.89s-3.06.3-4.44.89c-1.38.6-2.6,1.41-3.64,2.46-1.04,1.04-1.86,2.26-2.46,3.64-.6,1.38-.89,2.87-.89,4.44Zm11.43,10.27c-1.43,0-2.76-.27-4-.8-1.24-.54-2.32-1.27-3.26-2.21-.94-.94-1.67-2.02-2.21-3.26-.54-1.23-.8-2.57-.8-4s.27-2.76.8-4c.54-1.23,1.27-2.32,2.21-3.26.94-.94,2.02-1.67,3.26-2.21,1.23-.54,2.57-.8,4-.8s2.76.27,4,.8c1.23.54,2.32,1.27,3.26,2.21s1.67,2.02,2.21,3.26c.54,1.24.8,2.57.8,4s-.27,2.76-.8,4c-.54,1.24-1.27,2.32-2.21,3.26s-2.02,1.67-3.26,2.21c-1.24.54-2.57.8-4,.8Zm-6.25-10.27c0,.86.16,1.67.49,2.43.33.76.77,1.42,1.34,1.99.57.57,1.23,1.01,1.99,1.34.76.33,1.57.49,2.43.49s1.67-.16,2.43-.49c.76-.33,1.42-.77,1.99-1.34.57-.57,1.01-1.23,1.34-1.99.33-.76.49-1.57.49-2.43s-.16-1.67-.49-2.43c-.33-.76-.77-1.42-1.34-1.99-.57-.57-1.23-1.01-1.99-1.34-.76-.33-1.57-.49-2.43-.49s-1.67.16-2.43.49c-.76.33-1.42.77-1.99,1.34-.57.57-1.01,1.23-1.34,1.99-.33.76-.49,1.57-.49,2.43Zm102.63-4.87l11.48-11.48c2.94-2.94,7.71-2.97,10.68-.06l10.16,9.92c3.03,2.96,3.06,7.82.06,10.81l-11.72,11.72c-2.99,2.99-7.85,2.96-10.81-.06l-9.92-10.16c-2.91-2.98-2.88-7.74.06-10.68Zm11.87,9.23c.61.61,1.3,1.07,2.07,1.37.77.31,1.55.46,2.35.46.8,0,1.58-.15,2.35-.46.77-.3,1.46-.76,2.07-1.37s1.07-1.3,1.37-2.07c.31-.77.46-1.55.46-2.35,0-.8-.15-1.58-.46-2.35-.31-.77-.76-1.46-1.37-2.07s-1.3-1.07-2.07-1.37c-.77-.3-1.55-.46-2.35-.46-.8,0-1.58.15-2.35.46-.77.31-1.46.76-2.07,1.37s-1.07,1.3-1.37,2.07c-.3.77-.46,1.55-.46,2.35,0,.8.15,1.58.46,2.35.3.77.76,1.46,1.37,2.07Zm11.89,14.71l11.48-11.48c2.94-2.94,7.71-2.97,10.68-.06l10.16,9.92c3.03,2.96,3.06,7.82.06,10.81l-11.72,11.72c-2.99,2.99-7.85,2.96-10.81-.06l-9.92-10.16c-2.91-2.98-2.88-7.74.06-10.68Zm11.87,9.23c.61.61,1.3,1.07,2.07,1.37.77.31,1.55.46,2.35.46.8,0,1.58-.15,2.35-.46.77-.3,1.46-.76,2.07-1.37s1.07-1.3,1.37-2.07c.31-.77.46-1.55.46-2.35,0-.8-.15-1.58-.46-2.35-.31-.77-.76-1.46-1.37-2.07s-1.3-1.07-2.07-1.37c-.77-.3-1.55-.46-2.35-.46-.8,0-1.58.15-2.35.46-.77.31-1.46.76-2.07,1.37s-1.07,1.3-1.37,2.07c-.3.77-.46,1.55-.46,2.35,0,.8.15,1.58.46,2.35.3.77.76,1.46,1.37,2.07ZM62.89,3.66h5.59c.49,0,.95.24,1.23.65l7.33,10.78,7.28-10.78c.28-.41.74-.65,1.23-.65h5.59c.82,0,1.49.66,1.49,1.49v26.82c0,.82-.66,1.49-1.49,1.49h-6.54c-.82,0-1.49-.66-1.49-1.49v-9.23l-6.07,8.93-6.12-8.93v9.23c0,.82-.66,1.49-1.49,1.49h-6.54c-.82,0-1.49-.66-1.49-1.49V5.15c0-.82.66-1.49,1.49-1.49Zm4.14,26.21V9.38l10,14.56,9.96-14.56v20.5h1.16V7.23h-1.16l-9.96,14.69-10-14.69h-1.16v22.64h1.16ZM97.23,3.66h7.12c.82,0,1.49.66,1.49,1.49v26.82c0,.82-.66,1.49-1.49,1.49h-7.12c-.82,0-1.49-.66-1.49-1.49V5.15c0-.82.66-1.49,1.49-1.49Zm4.14,26.21V7.23h-1.16v22.64h1.16Zm9.08-26.21h5.57c.48,0,.93.23,1.21.62l7.77,10.86V5.15c0-.82.66-1.49,1.49-1.49h6.36c.82,0,1.49.66,1.49,1.49v26.82c0,.82-.66,1.49-1.49,1.49h-5.61c-.48,0-.93-.23-1.21-.62l-7.73-10.81v9.95c0,.82-.66,1.49-1.49,1.49h-6.36c-.82,0-1.49-.66-1.49-1.49V5.15c0-.82.66-1.49,1.49-1.49Zm3.83,26.21V9.24l14.74,20.63h1.16V7.23h-1.16v20.63l-14.74-20.63h-1.16v22.64h1.16Zm88.62-2.27h5.58c.48,0,.92.23,1.2.62l7.78,10.86v-10c0-.81.66-1.48,1.48-1.48h6.38c.81,0,1.48.66,1.48,1.48v26.84c0,.81-.66,1.48-1.48,1.48h-5.63c-.48,0-.92-.23-1.2-.62l-7.73-10.81v9.96c0,.81-.66,1.48-1.48,1.48h-6.38c-.81,0-1.48-.66-1.48-1.48v-26.84c0-.81.66-1.48,1.48-1.48Zm3.84,26.21v-20.63l14.74,20.63h1.16v-22.64h-1.16v20.63l-14.74-20.63h-1.16v22.64h1.16Zm24.65-26.21h6.96c.81,0,1.48.66,1.48,1.48v20.5h6.74c.81,0,1.48.66,1.48,1.48v4.86c0,.81-.66,1.48-1.48,1.48h-15.18c-.81,0-1.48-.66-1.48-1.48v-26.84c0-.81.66-1.48,1.48-1.48Zm14.15,26.21v-1.07h-10v-21.57h-1.16v22.64h11.16Zm5.54-26.21h7.14c.81,0,1.48.66,1.48,1.48v26.84c0,.81-.66,1.48-1.48,1.48h-7.14c-.81,0-1.48-.66-1.48-1.48v-26.84c0-.81.66-1.48,1.48-1.48Zm4.15,26.21v-22.64h-1.16v22.64h1.16Zm9.07-26.21h5.58c.48,0,.92.23,1.2.62l7.78,10.86v-10c0-.81.66-1.48,1.48-1.48h6.38c.81,0,1.48.66,1.48,1.48v26.84c0,.81-.66,1.48-1.48,1.48h-5.63c-.48,0-.92-.23-1.2-.62l-7.73-10.81v9.96c0,.81-.66,1.48-1.48,1.48h-6.38c-.81,0-1.48-.66-1.48-1.48v-26.84c0-.81.66-1.48,1.48-1.48Zm3.84,26.21v-20.63l14.74,20.63h1.16v-22.64h-1.16v20.63l-14.74-20.63h-1.16v22.64h1.16Zm24.65-26.21h14.6c.81,0,1.48.66,1.48,1.48v4.86c0,.81-.66,1.48-1.48,1.48h-6.56v3.3h6.43c.81,0,1.48.66,1.48,1.48v4.46c0,.81-.66,1.48-1.48,1.48h-6.43v3.44h6.88c.81,0,1.48.66,1.48,1.48v4.86c0,.81-.66,1.48-1.48,1.48h-14.91c-.81,0-1.48-.66-1.48-1.48v-26.84c0-.81.66-1.48,1.48-1.48Zm13.08,26.21v-1.07h-8.93v-9.78h8.48v-1.07h-8.48v-9.65h8.93v-1.07h-10.09v22.64h10.09Z"/>
    </clipPath>
    <linearGradient id="uuid-4d0ca10d-37e9-401a-9209-019a907dbdea" data-name="Degradado sin nombre 13" x1="77" y1="178.7" x2="233.2" y2="-91.85" gradientUnits="userSpaceOnUse">
      <stop offset="0" stop-color="#f4f5f8"/>
      <stop offset=".11" stop-color="#cdcadf"/>
      <stop offset=".37" stop-color="#6c60a1"/>
      <stop offset=".43" stop-color="#534592"/>
      <stop offset=".63" stop-color="#5d4c8c"/>
      <stop offset=".99" stop-color="#7a627d"/>
      <stop offset="1" stop-color="#7c637d"/>
    </linearGradient>
  </defs>
  <g id="uuid-d382ac06-9e11-40c7-aef4-e9ba79c89ccd" data-name="Capa 1">
    <g class="uuid-8f43ffcb-63fd-4b24-9b79-40839084d221">
      <rect class="uuid-74d1c126-e73f-4d1d-a58f-4e55a2f0020e" x="-8.33" y="-42.58" width="326.87" height="172.01"/>
    </g>
  </g>
</svg>