<?xml version="1.0" encoding="utf-8"?>
<!-- Generator: Adobe Illustrator 27.9.0, SVG Export Plug-In . SVG Version: 6.00 Build 0)  -->
<svg version="1.1" id="Layer_1" xmlns="http://www.w3.org/2000/svg" xmlns:xlink="http://www.w3.org/1999/xlink" x="0px" y="0px"
	 viewBox="0 0 500 500" style="enable-background:new 0 0 500 500;" xml:space="preserve">
<style type="text/css">
	.st0{fill:none;}
	.st1{fill:none;stroke:#000000;stroke-width:20;stroke-linecap:round;stroke-linejoin:round;}
	.st2{fill:#727373;}
	.st3{fill:#606161;}
</style>
<path class="st0" d="M370.4,222.3c0-66.5-54-120.4-120.5-120.4c-66.5,0-120.4,54-120.4,120.5c0,17.4,3.8,34.7,11.1,50.5l58.4,127.9
	h101.8l58.4-127.9C366.7,257,370.5,239.8,370.4,222.3z"/>
<path class="st0" d="M250,101.8c-5.4,0-10.8,0.4-16.1,1.2c65.9,8.9,112.1,69.4,103.3,135.3c-1.6,11.9-5,23.6-10,34.5l-58.4,127.9
	h32.2l58.4-127.9c27.9-60.4,1.6-132-58.8-159.9C284.7,105.6,267.4,101.9,250,101.8z"/>
<line class="st0" x1="250" y1="10.9" x2="250" y2="50.4"/>
<line class="st0" x1="398.5" y1="73.7" x2="370.7" y2="101.8"/>
<line class="st0" x1="456.1" y1="223.2" x2="416.6" y2="223.2"/>
<line class="st0" x1="101.6" y1="73.7" x2="129.3" y2="101.8"/>
<line class="st0" x1="43.9" y1="223.2" x2="83.4" y2="223.2"/>
<path class="st1" d="M370.4,222.3c0-66.5-54-120.4-120.5-120.4c-66.5,0-120.4,54-120.4,120.5c0,17.4,3.8,34.7,11.1,50.5l58.4,127.9
	h101.8l58.4-127.9C366.7,257,370.5,239.8,370.4,222.3z"/>
<path class="st2" d="M199,400.8h102l0,0v37.4c0,28.2-22.8,51-51,51l0,0c-28.2,0-51-22.8-51-51V400.8L199,400.8z"/>
<path class="st3" d="M268.8,400.8v37.4c0,21.9-14.1,41.4-34.9,48.3c5.2,1.7,10.6,2.6,16.1,2.6l0,0c28.2,0,51-22.8,51-51v-37.4H268.8
	z"/>
<path class="st1" d="M199,400.8h102l0,0v37.4c0,28.2-22.8,51-51,51l0,0c-28.2,0-51-22.8-51-51V400.8L199,400.8z"/>
<line class="st1" x1="186.4" y1="436.1" x2="313.6" y2="436.1"/>
<line class="st1" x1="186.4" y1="400.8" x2="313.6" y2="400.8"/>
</svg>
