<!DOCTYPE svg PUBLIC "-//W3C//DTD SVG 1.1//EN" "http://www.w3.org/Graphics/SVG/1.1/DTD/svg11.dtd">
<!-- Uploaded to: SVG Repo, www.svgrepo.com, Transformed by: SVG Repo Mixer Tools -->
<svg fill="#6DAEDB" style="overflow: visible;" height="320px" width="320px" version="1.1" id="Capa_1" xmlns="http://www.w3.org/2000/svg" xmlns:xlink="http://www.w3.org/1999/xlink" viewBox="-5.6 -5.6 67.16 67.16" xml:space="preserve" stroke="#6DAEDB" stroke-width="0.00055955" transform="matrix(1, 0, 0, 1, 0, 0)rotate(0)">

				<g id="SVGRepo_bgCarrier" stroke-width="0" transform="translate(0,0), scale(1)" style="filter: blur(2px); opacity: .2; overflow: visible;">
					<path transform="translate(-5.6, -5.6), scale(2.09875)"
						d="M16,27.287673427412905C18.688249943694117,27.26249093749055,21.144853097356457,30.205899616111232,23.67138606806596,29.287230434366286C26.122842829517012,28.395859609906818,27.228977695645437,25.419036360550045,27.995926162598387,22.925851199155055C28.68687745543538,20.679716569807727,27.63969544799328,18.346988321393624,27.75877643500765,16C27.88604682625222,13.491605256226613,29.606576218725273,11.0060580283339,28.71993972186646,8.65613937750459C27.822581480415963,6.2778040895588365,25.432796682418324,4.718475474742306,23.111395732810102,3.6827012780444015C20.8984130601651,2.695301686236663,18.375722826520587,2.5029997980442737,16,2.980693543950718C13.835818994154963,3.4158519386763286,12.337034285584462,5.247123230805545,10.367981582880024,6.245057952384547C8.258755353235706,7.314033956600305,5.627322298882391,7.359428416312881,3.9913402244694858,9.066797045990818C2.2217084035360366,10.91364726788331,1.022557490019699,13.442178703784505,1.0209020773569755,15.999999999999996C1.019246393453876,18.558240396798247,2.7705665333663614,20.685355571423514,3.982362582298581,22.93838619813322C5.230077129594878,25.258198258031285,5.768330728145715,28.53534286428798,8.245182933285825,29.43173716295118C10.8107385774287,30.3602340056535,13.271716846804818,27.313230933020527,16,27.287673427412905"
						fill="#5c4b8d" strokewidth="0" />
				</g>
				
				<g id="SVGRepo_tracerCarrier">
					<g>
						<circle cx="6" cy="33.525" r="2" />
						<circle cx="17" cy="33.525" r="2" />
						<circle cx="6" cy="44.525" r="2" />
						<circle cx="17" cy="44.525" r="2" />
						<circle cx="11.5" cy="39.358" r="2" />
						<path
							d="M19.6,6.525H3.4c-1.875,0-3.4,1.525-3.4,3.4v16.199c0,0.936,0.38,1.785,0.995,2.4C0.38,29.14,0,29.989,0,30.925v16.199 c0,1.875,1.525,3.4,3.4,3.4H19.6c1.875,0,3.4-1.525,3.4-3.4V30.925c0-0.936-0.38-1.785-0.995-2.4C22.62,27.909,23,27.061,23,26.124 V9.925C23,8.05,21.475,6.525,19.6,6.525z M2,9.925c0-0.772,0.628-1.4,1.4-1.4H19.6c0.772,0,1.4,0.628,1.4,1.4v16.199 c0,0.772-0.628,1.4-1.4,1.4H3.4c-0.772,0-1.4-0.628-1.4-1.4V9.925z M21,47.124c0,0.772-0.628,1.4-1.4,1.4H3.4 c-0.772,0-1.4-0.628-1.4-1.4V30.925c0-0.772,0.628-1.4,1.4-1.4H19.6c0.772,0,1.4,0.628,1.4,1.4V47.124z" />
						<circle cx="6" cy="12.525" r="2" />
						<circle cx="17" cy="12.525" r="2" />
						<circle cx="6" cy="23.525" r="2" />
						<circle cx="17" cy="23.525" r="2" />
						<circle cx="33.384" cy="24.545" r="2" />
						<circle cx="41.214" cy="11.103" r="2" />
						<circle cx="37.214" cy="17.501" r="2" />
						<path d="M55.841,43.028l-4.132-15.664c-0.231-0.877-0.79-1.611-1.574-2.068c0.436-0.752,0.587-1.669,0.349-2.573L46.353,7.057 c-0.479-1.811-2.339-2.896-4.155-2.419L26.533,8.77h-0.001c-1.812,0.479-2.896,2.343-2.419,4.154l4.132,15.666 c0.239,0.904,0.827,1.62,1.577,2.058c-0.001,0.001-0.002,0.002-0.002,0.003c-0.457,0.785-0.581,1.7-0.35,2.578l4.133,15.664 c0.231,0.878,0.791,1.614,1.575,2.071c0.526,0.307,1.112,0.464,1.706,0.464c0.291,0,0.584-0.038,0.873-0.114l15.664-4.133 c0.878-0.231,1.613-0.791,2.07-1.576S56.072,43.906,55.841,43.028z M26.047,12.414c-0.196-0.746,0.25-1.513,0.996-1.711 l15.664-4.132c0.749-0.196,1.515,0.251,1.712,0.996l4.132,15.664c0.196,0.746-0.251,1.515-0.996,1.712L31.89,29.076 c-0.751,0.195-1.514-0.251-1.711-0.996L26.047,12.414z M53.763,44.599c-0.188,0.323-0.49,0.554-0.852,0.649l-15.664,4.133 c-0.361,0.096-0.738,0.045-1.063-0.145c-0.322-0.188-0.553-0.49-0.648-0.853L31.403,32.72c-0.095-0.361-0.044-0.738,0.145-1.062 c0.188-0.323,0.49-0.554,0.852-0.649l15.666-4.132c0.119-0.031,0.239-0.047,0.359-0.047c0.244,0,0.484,0.064,0.701,0.19 c0.323,0.188,0.554,0.491,0.649,0.853l4.132,15.664C54.002,43.899,53.951,44.276,53.763,44.599z" />
						<circle cx="49.376" cy="42.044" r="2" />
						<circle cx="38.74" cy="44.85" r="2" />
						<circle cx="46.571" cy="31.408" r="2" />
						<circle cx="35.934" cy="34.214" r="2" />
					</g>
				</g>

				<g id="SVGRepo_iconCarrier">
					<g>
						<circle cx="6" cy="33.525" r="2"/>
						<circle cx="17" cy="33.525" r="2"/>
						<circle cx="6" cy="44.525" r="2"/>
						<circle cx="17" cy="44.525" r="2"/>
						<circle cx="11.5" cy="39.358" r="2"/>
						<path d="M19.6,6.525H3.4c-1.875,0-3.4,1.525-3.4,3.4v16.199c0,0.936,0.38,1.785,0.995,2.4C0.38,29.14,0,29.989,0,30.925v16.199 c0,1.875,1.525,3.4,3.4,3.4H19.6c1.875,0,3.4-1.525,3.4-3.4V30.925c0-0.936-0.38-1.785-0.995-2.4C22.62,27.909,23,27.061,23,26.124 V9.925C23,8.05,21.475,6.525,19.6,6.525z M2,9.925c0-0.772,0.628-1.4,1.4-1.4H19.6c0.772,0,1.4,0.628,1.4,1.4v16.199 c0,0.772-0.628,1.4-1.4,1.4H3.4c-0.772,0-1.4-0.628-1.4-1.4V9.925z M21,47.124c0,0.772-0.628,1.4-1.4,1.4H3.4 c-0.772,0-1.4-0.628-1.4-1.4V30.925c0-0.772,0.628-1.4,1.4-1.4H19.6c0.772,0,1.4,0.628,1.4,1.4V47.124z"/> <circle cx="6" cy="12.525" r="2"/> <circle cx="17" cy="12.525" r="2"/> <circle cx="6" cy="23.525" r="2"/> <circle cx="17" cy="23.525" r="2"/> <circle cx="33.384" cy="24.545" r="2"/> <circle cx="41.214" cy="11.103" r="2"/> <circle cx="37.214" cy="17.501" r="2"/> <path d="M55.841,43.028l-4.132-15.664c-0.231-0.877-0.79-1.611-1.574-2.068c0.436-0.752,0.587-1.669,0.349-2.573L46.353,7.057 c-0.479-1.811-2.339-2.896-4.155-2.419L26.533,8.77h-0.001c-1.812,0.479-2.896,2.343-2.419,4.154l4.132,15.666 c0.239,0.904,0.827,1.62,1.577,2.058c-0.001,0.001-0.002,0.002-0.002,0.003c-0.457,0.785-0.581,1.7-0.35,2.578l4.133,15.664 c0.231,0.878,0.791,1.614,1.575,2.071c0.526,0.307,1.112,0.464,1.706,0.464c0.291,0,0.584-0.038,0.873-0.114l15.664-4.133 c0.878-0.231,1.613-0.791,2.07-1.576S56.072,43.906,55.841,43.028z M26.047,12.414c-0.196-0.746,0.25-1.513,0.996-1.711 l15.664-4.132c0.749-0.196,1.515,0.251,1.712,0.996l4.132,15.664c0.196,0.746-0.251,1.515-0.996,1.712L31.89,29.076 c-0.751,0.195-1.514-0.251-1.711-0.996L26.047,12.414z M53.763,44.599c-0.188,0.323-0.49,0.554-0.852,0.649l-15.664,4.133 c-0.361,0.096-0.738,0.045-1.063-0.145c-0.322-0.188-0.553-0.49-0.648-0.853L31.403,32.72c-0.095-0.361-0.044-0.738,0.145-1.062 c0.188-0.323,0.49-0.554,0.852-0.649l15.666-4.132c0.119-0.031,0.239-0.047,0.359-0.047c0.244,0,0.484,0.064,0.701,0.19 c0.323,0.188,0.554,0.491,0.649,0.853l4.132,15.664C54.002,43.899,53.951,44.276,53.763,44.599z"/>
						<circle cx="49.376" cy="42.044" r="2"/>
						<circle cx="38.74" cy="44.85" r="2"/>
						<circle cx="46.571" cy="31.408" r="2"/>
						<circle cx="35.934" cy="34.214" r="2"/>
					</g>
				</g>
			</svg>