<?xml version="1.0" ?><svg viewBox="0 0 64 64" xmlns="http://www.w3.org/2000/svg"><g id="a"/><g id="b"/><g id="c"/><g id="d"/><g id="e"/><g id="f"/><g id="g"/><g id="h"/><g id="i"/><g id="j"/><g id="k"/><g id="l"/><g id="m"/><g id="n"/><g id="o"/><g id="p"/><g id="q"/><g id="r"/><g id="s"/><g id="t"/><g id="u"/><g id="v"/><g id="w"/><g id="x"/><g id="y"/><g id="a`"/><g id="aa"/><g id="ab"/><g id="ac"/><g id="ad"/><g id="ae"/><g id="af"/><g id="ag"/><g id="ah"/><g id="ai"><path d="M32.73,21.97l2.11-7.87c.53-1.99,2.57-3.17,4.57-2.64l16.83,4.51c1.99,.53,3.17,2.57,2.64,4.57l-9.32,34.77c-.53,1.99-2.57,3.17-4.57,2.64l-16.83-4.51c-1.34-.36-2.31-1.4-2.64-2.64l7.21-28.82Z" fill="#e4ecf0" fill-rule="evenodd"/><path d="M34.37,15.85l-1.64,6.12-7.21,28.82c.19,.73,.61,1.38,1.18,1.87l12.76-3.42c1.99-.53,3.17-2.57,2.64-4.56l-7.72-28.83Z" fill="#d9e3e9" fill-rule="evenodd"/><path d="M45.51,51.85c-.32,1.21-1.56,1.92-2.77,1.6-1.21-.32-1.92-1.57-1.6-2.77,.32-1.21,1.56-1.92,2.77-1.6,1.21,.32,1.92,1.57,1.6,2.77Z" fill="#7a8594" fill-rule="evenodd"/><path d="M48.02,42.5c.32-1.21-.39-2.45-1.6-2.77-1.21-.32-2.45,.39-2.77,1.6-.32,1.21,.39,2.45,1.6,2.77,1.21,.32,2.45-.39,2.77-1.6Z" fill="#7a8594" fill-rule="evenodd"/><path d="M49.32,23.06c.64,2.38-.78,4.83-3.16,5.47-2.38,.64-4.83-.78-5.47-3.16-.64-2.38,.78-4.83,3.16-5.47,2.38-.64,4.83,.78,5.47,3.16Z" fill="#7a8594" fill-rule="evenodd"/><path d="M13.09,7.57H30.52c2.06,0,3.73,1.67,3.73,3.73V47.29c0,2.06-1.67,3.73-3.73,3.73H13.09c-2.06,0-3.73-1.67-3.73-3.73V11.29c0-2.06,1.67-3.73,3.73-3.73Z" fill="#f0f3f5" transform="translate(-6.84 6.64) rotate(-15)"/><path d="M16.18,15.97c.32,1.21-.39,2.45-1.6,2.77-1.21,.32-2.45-.39-2.77-1.6-.32-1.21,.39-2.45,1.6-2.77,1.21-.32,2.45,.39,2.77,1.6Z" fill="#7a8594" fill-rule="evenodd"/><path d="M26.18,20.46c.32,1.21-.39,2.45-1.6,2.77-1.21,.32-2.45-.39-2.77-1.6-.32-1.21,.39-2.45,1.6-2.77,1.21-.32,2.45,.39,2.77,1.6Z" fill="#7a8594" fill-rule="evenodd"/><path d="M20.35,35.92c.32,1.21-.39,2.45-1.6,2.77-1.21,.32-2.45-.39-2.77-1.6-.32-1.21,.39-2.45,1.6-2.77,1.21-.32,2.45,.39,2.77,1.6Z" fill="#7a8594" fill-rule="evenodd"/><path d="M22.86,45.27c-.32-1.21-1.56-1.92-2.77-1.6-1.21,.32-1.92,1.56-1.6,2.77,.32,1.21,1.56,1.92,2.77,1.6,1.21-.32,1.92-1.57,1.6-2.77Z" fill="#7a8594" fill-rule="evenodd"/><path d="M30.75,33.13c-.32-1.21-1.56-1.92-2.77-1.6-1.21,.32-1.92,1.57-1.6,2.77,.32,1.21,1.56,1.92,2.77,1.6,1.21-.32,1.92-1.57,1.6-2.77Z" fill="#7a8594" fill-rule="evenodd"/><path d="M33.25,42.48c.32,1.21-.39,2.45-1.6,2.77-1.21,.32-2.45-.39-2.77-1.6-.32-1.21,.39-2.45,1.6-2.77,1.21-.32,2.45,.39,2.77,1.6Z" fill="#7a8594" fill-rule="evenodd"/><path d="M25.72,5.93c-.37-.01-.74,.02-1.12,.12l-3.24,.87c1.99-.53,4.03,.64,4.57,2.64l9.32,34.77c.53,1.99-.64,4.03-2.64,4.57l3.24-.87c1.99-.53,3.17-2.57,2.64-4.57L29.17,8.69c-.43-1.62-1.86-2.7-3.45-2.76Z" fill="#e4ecf0" fill-rule="evenodd"/><path d="M53.11,15.14c1.99,.53,3.17,2.57,2.64,4.57l-9.32,34.77c-.53,1.99-2.56,3.17-4.56,2.64l3.11,.83c1.99,.54,4.03-.64,4.57-2.64l9.32-34.77c.53-2-.64-4.03-2.64-4.57l-3.12-.84Z" fill="#d9e3e9" fill-rule="evenodd"/><path d="M13.99,19.81c.29,0,.57-.04,.85-.11,1.74-.47,2.77-2.26,2.31-4h0c-.38-1.42-1.68-2.42-3.15-2.42-.29,0-.57,.04-.85,.11-1.74,.47-2.77,2.26-2.31,4,.38,1.42,1.68,2.42,3.15,2.42Zm-.33-4.48c.11-.03,.22-.04,.33-.04,.57,0,1.07,.39,1.22,.94,.18,.66-.23,1.37-.89,1.55-.66,.18-1.37-.24-1.55-.89-.18-.66,.23-1.37,.89-1.55Z"/><path d="M23.99,24.31c.29,0,.57-.04,.84-.11,.84-.22,1.54-.76,1.98-1.52,.44-.76,.55-1.64,.33-2.47-.45-1.7-2.27-2.76-4-2.31-1.42,.38-2.42,1.68-2.42,3.15,0,.29,.04,.57,.11,.84,.38,1.42,1.68,2.42,3.15,2.42Zm-.33-4.48c.11-.03,.22-.04,.33-.04,.57,0,1.07,.39,1.22,.94h0c.09,.32,.04,.66-.13,.96-.17,.29-.44,.5-.76,.59-.65,.17-1.37-.24-1.55-.89-.03-.11-.04-.22-.04-.33,0-.57,.39-1.07,.93-1.22Z"/><path d="M19.01,39.66c.84-.22,1.54-.76,1.98-1.52,.44-.76,.55-1.64,.33-2.47-.45-1.7-2.28-2.77-4-2.31-1.42,.38-2.42,1.68-2.42,3.15,0,.29,.04,.57,.11,.84,.39,1.46,1.71,2.42,3.15,2.42,.28,0,.56-.04,.84-.11Zm-2.06-2.83c-.03-.11-.04-.22-.04-.33,0-.57,.39-1.07,.93-1.22,.11-.03,.22-.04,.33-.04,.57,0,1.07,.39,1.22,.94,.09,.32,.04,.66-.13,.96-.17,.29-.44,.5-.76,.59-.66,.18-1.37-.23-1.55-.89Z"/><path d="M30.22,39.92c-1.42,.38-2.42,1.68-2.42,3.15,0,.28,.04,.57,.11,.84,.38,1.42,1.68,2.42,3.15,2.42,.29,0,.57-.04,.85-.11,1.74-.47,2.77-2.26,2.31-4-.45-1.7-2.28-2.76-4-2.31Zm1.17,4.37c-.65,.17-1.37-.24-1.55-.89-.03-.11-.04-.22-.04-.33,0-.57,.39-1.07,.93-1.22,.11-.03,.22-.04,.33-.04,.57,0,1.07,.38,1.22,.94,.18,.66-.23,1.37-.89,1.55Z"/><path d="M22.3,43.03c-.76-.44-1.64-.56-2.47-.33-.84,.22-1.54,.76-1.98,1.52-.44,.76-.55,1.64-.33,2.47,.38,1.42,1.68,2.42,3.15,2.42,.28,0,.57-.04,.85-.11,1.42-.38,2.42-1.68,2.42-3.15,0-.29-.04-.57-.11-.85-.22-.84-.77-1.54-1.52-1.98Zm-1.3,4.04c-.68,.18-1.37-.24-1.55-.89-.09-.32-.04-.66,.13-.96,.17-.29,.44-.5,.76-.59,.11-.03,.21-.04,.32-.04,.22,0,.44,.06,.63,.17,.29,.17,.5,.44,.59,.76h0c.03,.11,.04,.22,.04,.33,0,.57-.39,1.07-.93,1.22Z"/><path d="M29.41,36.87c1.42-.38,2.42-1.68,2.42-3.15,0-.29-.04-.57-.11-.84-.38-1.42-1.68-2.42-3.15-2.42-.29,0-.57,.04-.84,.11-.84,.22-1.54,.76-1.98,1.52-.44,.76-.55,1.64-.33,2.47,.38,1.42,1.68,2.42,3.15,2.42,.28,0,.57-.04,.84-.11Zm-2.07-2.83c-.09-.32-.04-.66,.13-.96,.23-.4,.65-.63,1.09-.63,.57,0,1.07,.39,1.22,.94,.03,.11,.04,.22,.04,.33,0,.57-.39,1.07-.93,1.22-.66,.17-1.37-.24-1.55-.89Z"/><path d="M56.49,15.01l-16.84-4.51c-2.51-.67-5.11,.83-5.79,3.34l-1.14,4.27-2.59-9.68c-.68-2.52-3.27-4.02-5.79-3.34L7.51,9.6c-1.22,.33-2.24,1.11-2.87,2.2s-.8,2.37-.47,3.59L13.48,50.16c.56,2.11,2.48,3.5,4.57,3.5,.4,0,.81-.05,1.22-.16l5.66-1.52c.6,1.17,1.66,2.07,2.96,2.42l16.84,4.51c.41,.11,.82,.16,1.22,.16,2.09,0,4-1.4,4.57-3.5l9.32-34.77c.67-2.52-.82-5.12-3.34-5.79ZM6.36,12.8c.36-.63,.95-1.08,1.66-1.27L24.86,7.02c.24-.06,.47-.09,.71-.09,1.2,0,2.31,.81,2.64,2.02l4.4,16.42-22.1,5.92L6.09,14.87c-.19-.71-.09-1.44,.27-2.07Zm12.39,38.77c-1.46,.39-2.95-.48-3.34-1.93l-4.4-16.42,22.1-5.92,4.4,16.42c.39,1.45-.48,2.95-1.93,3.34l-16.83,4.51Zm29.84,3.49c-.39,1.45-1.88,2.32-3.34,1.93l-16.83-4.51c-.6-.16-1.06-.56-1.42-1.04l9.11-2.44c2.52-.68,4.02-3.27,3.34-5.79l-2.36-8.83,15.91,4.26-4.4,16.42Zm9.32-34.77l-4.4,16.42-17.02-4.56-2.72-10.17,2.04-7.61c.39-1.45,1.89-2.32,3.34-1.93l16.83,4.51c1.45,.39,2.32,1.89,1.93,3.34Z"/><path d="M44.17,48.11c-1.77-.47-3.54,.59-3.99,2.31-.47,1.74,.57,3.53,2.31,4,1.74,.47,3.53-.57,4-2.31,.47-1.74-.57-3.53-2.31-4Zm.38,3.48h0c-.18,.66-.88,1.07-1.55,.89-.67-.18-1.08-.87-.89-1.55,.18-.67,.87-1.07,1.55-.89,.67,.18,1.07,.87,.89,1.55Z"/><path d="M46.67,38.77c-1.77-.47-3.54,.59-3.99,2.31-.46,1.73,.57,3.53,2.31,4,.27,.07,.56,.11,.85,.11,1.47,0,2.77-.99,3.15-2.42,.47-1.74-.57-3.53-2.31-4Zm.38,3.48h0c-.18,.66-.89,1.07-1.55,.89-.67-.18-1.07-.88-.89-1.55,.18-.66,.86-1.07,1.55-.89,.67,.18,1.07,.87,.89,1.55Z"/><path d="M47.73,19.49c-1.27-.73-2.74-.93-4.14-.55-2.91,.78-4.65,3.78-3.87,6.69,.64,2.39,2.81,4.05,5.28,4.05,.48,0,.95-.06,1.42-.19,2.38-.64,4.05-2.81,4.05-5.28,0-.48-.06-.95-.19-1.41-.38-1.4-1.28-2.58-2.55-3.31Zm-1.83,8.07c-.29,.08-.59,.12-.9,.12-1.57,0-2.94-1.06-3.35-2.57-.49-1.85,.61-3.75,2.45-4.24,.91-.24,1.84-.1,2.63,.35,.81,.47,1.38,1.21,1.62,2.1,.08,.29,.12,.59,.12,.9,0,1.57-1.06,2.94-2.57,3.35Z"/></g><g id="aj"/><g id="ak"/><g id="al"/><g id="am"/><g id="an"/><g id="ao"/><g id="ap"/><g id="aq"/><g id="ar"/><g id="as"/><g id="at"/><g id="au"/><g id="av"/><g id="aw"/><g id="ax"/></svg>